<svg xmlns="http://www.w3.org/2000/svg" id="Calque_2" viewBox="0 0 967.75 83.06"><defs><style>.cls-1{fill:#ff0;}</style></defs><g id="Calque_12"><path class="cls-1" d="M100.08,69.8h-44.26l-7.05,11.67H0L53.87,1.46h57.16l53.87,80.02h-58.13l-6.69-11.67ZM90.72,53.51l-12.04-21.16h-.49l-12.65,21.16h25.17Z"></path><path class="cls-1" d="M171.95,1.46h47.18v49.49h58.37v30.52h-105.55V1.46Z"></path><path class="cls-1" d="M292.1,31.74h-38.06V1.46h122.34v30.28h-38.06v49.74h-46.21V31.74Z"></path><path class="cls-1" d="M385.01,1.46h46.09v80.02h-46.09V1.46Z"></path><path class="cls-1" d="M440.34,53.39c0-3.4.97-6.69,1.58-8.03h35.63c-.12.61-.24,1.58-.24,2.31,0,5.11,5.59,8.51,21.52,8.51,18.73,0,22.5-3.16,22.5-5.59,0-1.82-2.68-2.8-9.73-2.8h-19.94v-12.77h18.61c6.57,0,9.36-.97,9.36-3.53s-4.38-4.74-19.34-4.74c-17.03,0-20.43,3.53-20.43,7.9,0,.73.12,1.46.24,2.19h-34.41c-.85-2.19-1.58-5.23-1.58-8.63,0-13.01,12.89-28.21,59.71-28.21,41.95,0,57.76,10.82,57.76,21.77,0,9-5.96,13.38-17.39,15.32v.61c17.88,1.22,24.44,8.39,24.44,17.63,0,15.81-17.63,27.6-67.37,27.6s-60.93-19.09-60.93-29.55Z"></path><path class="cls-1" d="M576.66,39.16V1.46h46.94v32.1c0,10.94,8.27,16.05,25.9,16.05s25.9-5.11,25.9-16.05V1.46h37.09v37.7c0,29.55-23.23,43.9-67.61,43.9s-68.22-14.35-68.22-43.9Z"></path><path class="cls-1" d="M721.74,1.46h59.83c48.03,0,69.07,13.98,69.07,39.89s-19.94,40.13-63.36,40.13h-65.55V1.46ZM784.37,53.87c13.86,0,20.19-4.38,20.19-12.53,0-7.42-6.2-12.28-20.79-12.28h-16.17v24.81h16.78Z"></path><path class="cls-1" d="M859.4,1.46h106.77v26.39h-60.92v7.17h41.71v12.77h-41.71v7.3h62.51v26.39h-108.35V1.46Z"></path></g></svg>